<?xml version="1.0" standalone="no"?><!DOCTYPE svg PUBLIC "-//W3C//DTD SVG 1.1//EN" "http://www.w3.org/Graphics/SVG/1.1/DTD/svg11.dtd"><svg t="1748151901770" class="icon" viewBox="0 0 1024 1024" version="1.1" xmlns="http://www.w3.org/2000/svg" p-id="4469" xmlns:xlink="http://www.w3.org/1999/xlink" width="81" height="81"><path d="M721.289371 629.162692l-4.127554 8.41509 68.920548 25.565236 3.295644-7.103232c8.223111-17.534104 14.878391-35.324181 19.773861-52.922278a340.059231 340.059231 0 0 0-84.662845-328.60447c-131.057829-133.233594-346.106577-135.0254-479.340172-3.999567l-2.047778 2.047778C112.043245 403.587082 111.179339 617.70793 241.149286 749.885639a339.067338 339.067338 0 0 0 332.636033 88.790399 338.939352 338.939352 0 0 0 52.890282-19.837855l7.071235-3.359637-25.565236-68.920548-8.447086 4.127554a265.25132 265.25132 0 0 1-50.010593 18.557994c-92.661981 23.933412-191.211325-2.879689-257.188191-69.944438-102.324936-104.020753-100.885092-273.346444 3.167657-377.367197a264.835365 264.835365 0 0 1 189.323529-76.471731 265.05934 265.05934 0 0 1 188.043668 79.607392c65.592908 66.68079 90.550209 161.646522 66.744783 254.052531a265.667275 265.667275 0 0 1-18.525996 50.010592m-307.710729-201.80218a109.268185 109.268185 0 0 1 49.914603-23.325478l-23.325478-50.778509c-18.110042 4.863474-35.196194 12.190682-50.266565 22.493567a164.942166 164.942166 0 0 0-72.312181 135.12139 165.230134 165.230134 0 0 0 163.822286 166.57399h1.439845a165.230134 165.230134 0 0 0 92.917953-301.727376 164.366228 164.366228 0 0 0-50.298562-22.493568l-23.325477 50.810506a108.564261 108.564261 0 0 1 49.978596 23.229488c3.103664 2.559723 6.367312 4.799481 9.215003 7.743163a109.428168 109.428168 0 0 1 31.612582 78.135552c-0.479948 60.249486-49.914603 109.236189-111.027995 109.236189a110.260078 110.260078 0 0 1-109.268185-111.059992c0.319965-33.916333 16.414225-63.897091 40.923575-83.958922m579.297363 32.572478c-11.518755-113.651711-63.161171-222.407952-145.488269-306.238888C764.836662 69.63919 656.976324 16.236964 543.548589 3.310362 432.392608-9.328271 317.781 15.597034 220.607507 73.510772 123.114048 131.616489 46.930286 220.822844 6.038707 324.747607l-5.887363 15.006377 81.271212 37.27597 6.527294-16.894174c66.616797-172.557342 247.013292-286.049071 428.817635-269.826825 218.472378 19.453897 389.621872 204.745862 389.621872 421.842389v3.583612c-1.599827 194.346986-145.584259 370.839903-334.875792 410.45162-201.578204 42.235433-409.52372-70.392389-483.563715-261.955676l-6.527294-16.862177L0.055354 684.676689l5.91936 15.006378c45.211112 114.803587 131.69776 209.609336 243.493672 266.947136A517.064092 517.064092 0 0 0 485.442871 1024c41.275537 0 82.583071-5.023457 122.994702-15.230353 117.747269-29.660793 221.832014-102.004971 293.056313-203.689976 71.224299-101.685005 103.668791-224.295748 91.414116-345.178678" fill="#0082FF" p-id="4470"></path></svg>